<?xml version="1.0" encoding="iso-8859-1"?>
<!-- Generator: Adobe Illustrator 19.0.0, SVG Export Plug-In . SVG Version: 6.00 Build 0)  -->
<svg version="1.1" id="Layer_1" xmlns="http://www.w3.org/2000/svg" xmlns:xlink="http://www.w3.org/1999/xlink" x="0px" y="0px"
	 viewBox="0 0 511.996 511.996" style="enable-background:new 0 0 511.996 511.996;" xml:space="preserve">
<path style="fill:#CC8103;" d="M113.308,433.261c-5.468,5.476-14.33,5.476-19.798,0l0,0c-5.468-5.468-5.468-14.326,0-19.794
	l300.15-300.154c5.468-5.468,14.33-5.468,19.798,0l0,0c5.468,5.468,5.464,14.334,0,19.802L113.308,433.261z"/>
<path style="fill:#A66902;" d="M368.279,178.285l45.174-45.17c5.464-5.468,5.468-14.334,0-19.802
	c-5.468-5.468-14.334-5.468-19.798,0l-64.976,64.972H368.279z"/>
<path style="fill:#F89E04;" d="M393.66,433.261c5.468,5.476,14.334,5.476,19.798,0l0,0c5.468-5.468,5.468-14.326,0-19.794
	l-300.15-300.154c-5.468-5.468-14.33-5.468-19.802,0l0,0c-5.464,5.468-5.464,14.334,0,19.802L393.66,433.261z"/>
<path style="fill:#CC8103;" d="M137.539,177.136h39.596l-63.823-63.823c-5.468-5.468-14.33-5.468-19.802,0
	c-5.464,5.468-5.464,14.334,0,19.802L137.539,177.136z"/>
<path style="fill:#F89E04;" d="M511.996,125.993c0,9.835-7.968,17.807-17.803,17.807H17.803C7.972,143.8,0,135.832,0,125.993V92.431
	c0-9.835,7.972-17.799,17.803-17.799h476.39c9.835,0,17.803,7.959,17.803,17.799V125.993z"/>
<circle style="fill:#630F13;" cx="253.486" cy="273.305" r="7.783"/>
<g>
	<rect x="27.051" y="74.628" style="fill:#CC8103;" width="15.422" height="69.168"/>
	<rect x="90.636" y="74.628" style="fill:#CC8103;" width="15.418" height="69.168"/>
	<rect x="154.192" y="74.628" style="fill:#CC8103;" width="15.422" height="69.168"/>
	<rect x="217.765" y="74.628" style="fill:#CC8103;" width="15.422" height="69.168"/>
	<rect x="281.35" y="74.628" style="fill:#CC8103;" width="15.418" height="69.168"/>
	<rect x="344.894" y="74.628" style="fill:#CC8103;" width="15.418" height="69.168"/>
	<rect x="408.479" y="74.628" style="fill:#CC8103;" width="15.422" height="69.168"/>
	<rect x="472.063" y="74.628" style="fill:#CC8103;" width="15.422" height="69.168"/>
</g>
<g>
</g>
<g>
</g>
<g>
</g>
<g>
</g>
<g>
</g>
<g>
</g>
<g>
</g>
<g>
</g>
<g>
</g>
<g>
</g>
<g>
</g>
<g>
</g>
<g>
</g>
<g>
</g>
<g>
</g>
</svg>
